<svg xmlns="http://www.w3.org/2000/svg" width="32" height="32" viewBox="0 0 32 32" fill="none" stroke-linecap="round" stroke-linejoin="round">
<g stroke="#2B2F36">
<path d="M9 18 H22 A5 5 0 0 0 22.6 8.03 A7 7 0 0 0 9.1 8.6 A4.7 4.7 0 0 0 9 18 Z" stroke-width="4"/>
</g>
<path d="M9 18 H22 A5 5 0 0 0 22.6 8.03 A7 7 0 0 0 9.1 8.6 A4.7 4.7 0 0 0 9 18 Z" stroke="#FFFFFF" stroke-width="2"/>
<g stroke="#2B2F36">
<path d="M22 14 V21 A4.5 4.5 0 0 1 17.5 25.5 H8" stroke-width="4"/>
<polyline points="12,21.5 8,25.5 12,29.5" stroke-width="4"/>
</g>
<path d="M22 14 V21 A4.5 4.5 0 0 1 17.5 25.5 H8" stroke="#3186F6" stroke-width="2"/>
<polyline points="12,21.5 8,25.5 12,29.5" stroke="#3186F6" stroke-width="2"/>
</svg>